<svg xmlns="http://www.w3.org/2000/svg" viewBox="27 212 984 527">
<g transform="translate(0.000000,1024.000000) scale(0.100000,-0.100000)">
<path d="M2040 7322 c0 -86 -43 -166 -128 -240 -140 -122 -183 -167 -207 -216
-92 -188 -16 -410 174 -510 91 -48 93 -47 168 33 35 39 73 73 84 76 11 4 18 9
15 12 -3 3 15 28 39 55 91 101 142 243 132 371 -6 87 -17 100 -47 52 -26 -42
-102 -95 -137 -95 -28 0 -29 -4 5 66 57 123 36 308 -49 415 -41 52 -49 49 -49
-19z" fill="#F5A614"/>
<path d="M6290 6478 c0 -37 -9 -110 -20 -165 -28 -137 -28 -140 13 -110 17 14
47 32 65 41 60 31 36 215 -37 280 l-21 19 0 -65z" fill="#F5A614"/>
<path d="M3100 6305 c0 -63 -10 -115 -45 -245 -98 -358 -126 -682 -89 -1037 8
-78 11 -78 52 5 32 66 32 69 32 207 0 234 27 409 106 675 61 210 51 349 -34
450 l-21 25 -1 -80z" fill="#F5A614"/>
<path d="M9835 6023 c0 -189 -44 -306 -163 -434 -49 -53 -52 -59 -29 -53 42
10 94 -4 130 -36 39 -34 44 -31 86 35 114 180 114 451 -1 588 l-23 28 0 -128z" fill="#F5A614"/>
<path d="M9763 6020 c0 -30 2 -43 4 -27 2 15 2 39 0 55 -2 15 -4 2 -4 -28z" fill="#F5A614"/>
<path d="M5634 5925 c0 -60 1 -84 3 -52 2 32 2 81 0 110 -2 29 -3 3 -3 -58z" fill="#F5A614"/>
<path d="M6984 5690 c0 -69 1 -97 3 -62 2 34 2 90 0 125 -2 34 -3 6 -3 -63z" fill="#F5A614"/>
<path d="M2874 5340 c0 -63 1 -89 3 -57 2 31 2 83 0 115 -2 31 -3 5 -3 -58z" fill="#F5A614"/>
<path d="M5477 5359 c-101 -107 -347 -138 -401 -50 -50 81 -24 -271 41 -544
45 -188 32 -288 -46 -377 -122 -140 -480 -180 -642 -73 l-37 24 -28 -31 c-111
-116 -364 -160 -508 -89 l-66 32 -45 -31 c-148 -102 -343 -128 -497 -65 -34
14 -63 25 -65 25 -2 0 20 -46 50 -102 121 -227 100 -405 -68 -574 -243 -245
-710 -278 -938 -66 -60 56 -62 30 -4 -66 107 -179 305 -270 562 -259 500 23
777 402 579 794 -32 63 -39 83 -26 78 168 -65 396 -35 520 70 l30 25 36 -21
c147 -86 415 -55 537 63 l34 33 69 -35 70 -35 145 0 c210 0 269 17 302 88 32
68 90 141 139 173 49 32 53 89 20 241 -42 194 -76 533 -53 533 5 0 31 -7 57
-16 58 -20 176 -15 222 9 35 18 34 16 53 210 8 89 8 89 -42 36z" fill="#F5A614"/>
<path d="M6743 5290 c0 -41 2 -58 4 -37 2 20 2 54 0 75 -2 20 -4 3 -4 -38z" fill="#F5A614"/>
<path d="M9848 5262 c-41 -584 -839 -837 -1163 -368 l-37 54 -40 -79 c-180
-360 -770 -466 -1047 -188 l-58 57 -12 -92 c-104 -798 -572 -1303 -1290 -1392
-471 -58 -855 90 -1083 416 -17 24 -17 24 -3 -18 239 -712 1431 -818 2055
-182 239 243 375 554 445 1012 l6 37 46 -35 c312 -238 859 -135 1032 194 l32
62 69 -72 c349 -374 1000 -190 1130 318 34 130 22 232 -36 315 -37 53 -40 50
-46 -39z" fill="#F5A614"/>
<path d="M6233 5065 c0 -38 2 -53 4 -32 2 20 2 52 0 70 -2 17 -4 1 -4 -38z" fill="#F5A614"/>
<path d="M1413 4860 c0 -30 2 -43 4 -27 2 15 2 39 0 55 -2 15 -4 2 -4 -28z" fill="#F5A614"/>
<path d="M3013 4695 c0 -27 2 -38 4 -22 2 15 2 37 0 50 -2 12 -4 0 -4 -28z" fill="#F5A614"/>
<path d="M6239 4569 c-52 -111 -178 -182 -362 -204 l-58 -7 79 -49 c43 -27
103 -59 133 -73 l55 -24 52 18 c87 31 168 95 207 165 10 17 14 15 60 -17 156
-112 242 -97 342 59 43 68 42 74 -14 57 -157 -47 -318 -15 -427 86 l-43 40
-24 -51z" fill="#F5A614"/>
<path d="M2110 4433 c-142 -356 -417 -393 -556 -76 l-34 78 6 -340 c8 -461
-13 -553 -166 -706 -204 -203 -636 -246 -823 -81 -29 26 -30 6 -1 -47 182
-335 771 -317 1003 29 90 135 116 284 107 603 l-7 218 41 -41 c105 -105 273
-121 383 -37 34 26 52 117 74 380 7 92 3 95 -27 20z" fill="#F5A614"/>
<path d="M5778 4443 c17 -2 47 -2 65 0 17 2 3 4 -33 4 -36 0 -50 -2 -32 -4z" fill="#F5A614"/>
<path d="M3408 4203 c18 -2 45 -2 60 0 15 2 0 4 -33 4 -33 0 -45 -2 -27 -4z" fill="#F5A614"/>
<path d="M2153 3825 c0 -33 2 -45 4 -27 2 18 2 45 0 60 -2 15 -4 0 -4 -33z" fill="#F5A614"/>
<path d="M2598 3383 c17 -2 47 -2 65 0 17 2 3 4 -33 4 -36 0 -50 -2 -32 -4z" fill="#F5A614"/>
<path d="M2434 7516 c-3 -8 -4 -25 -1 -38 3 -17 5 -14 6 11 1 29 3 32 16 21
13 -11 14 -10 9 4 -8 20 -23 21 -30 2z" fill="#FFFFFF"/>
<path d="M6221 6518 c-1 -31 -8 -92 -16 -135 -8 -43 -15 -81 -15 -85 0 -8 31
15 61 46 15 15 19 16 20 5 3 -35 17 53 18 115 1 52 -2 67 -12 63 -15 -6 -41
12 -50 33 -3 8 -6 -10 -6 -42z" fill="#FFFFFF"/>
<path d="M1218 6493 c18 -2 45 -2 60 0 15 2 0 4 -33 4 -33 0 -45 -2 -27 -4z" fill="#FFFFFF"/>
<path d="M3020 6430 c22 -76 11 -186 -35 -346 -3 -10 3 -2 13 19 21 42 51 28
53 -24 0 -13 11 12 24 56 28 96 35 255 11 255 -8 0 -28 17 -45 37 l-31 37 10
-34z" fill="#FFFFFF"/>
<path d="M6383 6325 c0 -27 2 -38 4 -22 2 15 2 37 0 50 -2 12 -4 0 -4 -28z" fill="#FFFFFF"/>
<path d="M9740 6193 c77 -250 -26 -522 -242 -638 l-56 -30 86 2 87 2 56 59
c119 126 164 246 164 436 0 106 -3 130 -15 134 -8 3 -34 25 -57 50 l-42 45 19
-60z" fill="#FFFFFF"/>
<path d="M6593 6233 c15 -2 37 -2 50 0 12 2 0 4 -28 4 -27 0 -38 -2 -22 -4z" fill="#FFFFFF"/>
<path d="M2912 5790 c-29 -185 -34 -280 -29 -529 5 -224 23 -439 43 -504 13
-42 39 24 40 103 1 41 3 82 4 90 1 8 -3 87 -10 175 -14 182 -8 417 15 570 27
181 26 172 16 148 -6 -13 -13 -45 -17 -72 -7 -53 -37 -78 -49 -40 -8 23 5 44
25 44 18 0 15 35 -4 50 -7 6 -15 17 -18 25 -2 8 -10 -19 -16 -60z" fill="#FFFFFF"/>
<path d="M5081 5623 c11 -3 15 -11 12 -24 -3 -10 0 -26 7 -34 6 -8 9 -24 5
-37 -5 -18 -4 -20 4 -8 27 38 7 112 -28 109 -13 -1 -13 -2 0 -6z" fill="#FFFFFF"/>
<path d="M4313 5490 c0 -30 2 -43 4 -27 2 15 2 39 0 55 -2 15 -4 2 -4 -28z" fill="#FFFFFF"/>
<path d="M5486 5498 c-103 -181 -365 -220 -397 -60 -6 32 -7 33 -8 9 0 -16 -8
-35 -16 -43 -42 -42 -7 -101 80 -134 142 -55 397 70 379 185 -3 25 -10 45 -15
45 -5 0 -6 7 -3 15 10 26 -1 16 -20 -17z" fill="#FFFFFF"/>
<path d="M9743 5514 c15 -8 27 -19 27 -23 0 -5 8 -12 18 -15 9 -3 2 7 -16 24
-18 16 -38 30 -45 30 -6 -1 0 -8 16 -16z" fill="#FFFFFF"/>
<path d="M9744 5430 c120 -143 -53 -513 -297 -634 -343 -169 -677 -24 -787
342 -12 39 -26 72 -30 72 -5 0 -12 12 -18 28 -7 21 -10 3 -15 -83 -9 -162 -53
-275 -143 -369 -241 -252 -779 -231 -899 35 -20 44 -25 47 -42 21 -59 -96 120
-267 317 -302 331 -60 651 75 778 329 l40 79 37 -54 c325 -472 1111 -221 1163
370 l8 84 -33 36 c-18 20 -37 36 -42 36 -4 0 -16 9 -26 20 -29 32 -39 23 -11
-10z" fill="#FFFFFF"/>
<path d="M2244 5135 c-16 -39 -19 -69 -3 -42 16 27 27 20 32 -20 2 -23 4 -12
5 30 2 75 -11 87 -34 32z" fill="#FFFFFF"/>
<path d="M1414 5107 c-3 -8 -3 -56 -1 -108 l3 -94 2 102 c1 70 6 103 15 106 9
4 9 6 -1 6 -7 1 -15 -5 -18 -12z" fill="#FFFFFF"/>
<path d="M1426 4655 c2 -137 9 -329 14 -425 22 -416 10 -564 -60 -684 -170
-299 -698 -346 -880 -79 -18 26 -29 39 -25 28 4 -11 12 -57 18 -102 5 -45 14
-80 19 -77 5 3 17 -1 26 -9 186 -164 619 -121 822 82 153 153 174 245 166 706
l-6 340 34 -78 c135 -309 405 -282 547 53 57 136 68 208 40 255 -12 20 -21 44
-22 53 0 9 -24 -55 -53 -143 -95 -288 -161 -365 -293 -340 -81 15 -124 88
-184 309 -32 121 -42 148 -35 100 3 -17 0 -36 -6 -42 -6 -6 -7 -21 -3 -39 l9
-28 6 35 7 35 2 -30 c0 -17 -3 -35 -8 -40 -5 -6 -11 -28 -13 -50 -6 -72 -23
-37 -23 48 -1 63 -6 93 -23 131 -12 27 -22 57 -22 68 0 10 -9 37 -20 58 -11
22 -25 57 -30 77 -7 26 -8 -41 -4 -212z" fill="#FFFFFF"/>
<path d="M5026 4813 c3 -15 15 -62 25 -105 61 -245 -63 -367 -369 -368 -158 0
-236 37 -267 125 -8 22 -14 33 -15 24 -1 -37 -30 -44 -31 -8 -1 34 -2 34 -8
-6 -37 -213 -484 -295 -554 -102 -3 7 -23 -8 -50 -35 -162 -166 -432 -182
-594 -35 -33 31 -50 42 -40 26 9 -14 17 -36 16 -50 0 -37 12 -82 28 -101 8 -9
13 -25 10 -35 -4 -16 -6 -15 -12 5 -4 12 -12 22 -19 22 -6 0 -24 7 -39 15
l-28 14 42 -77 c104 -191 103 -189 104 -287 1 -485 -888 -637 -1045 -179 -11
31 -20 71 -20 87 0 17 -3 27 -6 24 -4 -3 -1 -72 6 -152 7 -80 15 -143 18 -140
3 2 26 -15 52 -39 224 -210 693 -175 935 68 168 169 189 347 68 574 -30 56
-52 102 -50 102 2 0 31 -11 65 -25 154 -63 349 -37 497 65 l45 31 66 -32 c144
-71 397 -27 508 89 l28 31 37 -24 c260 -172 712 -5 714 265 1 79 -33 243 -44
214 -4 -10 -8 -13 -8 -6 -1 6 -7 12 -14 12 -7 0 -23 9 -35 21 l-23 20 7 -28z" fill="#FFFFFF"/>
<path d="M2138 4805 c-4 -16 -9 -39 -12 -50 -4 -11 1 -5 9 14 9 18 14 41 13
50 -2 9 -7 3 -10 -14z" fill="#FFFFFF"/>
<path d="M6705 4570 c-11 -5 -32 -9 -47 -9 -25 -1 -26 -3 -17 -33 7 -27 6 -35
-8 -46 -20 -15 -19 -15 87 9 30 7 58 12 61 11 4 -1 9 8 12 19 5 19 -15 49 -33
49 -5 0 -14 2 -22 4 -7 3 -22 1 -33 -4z" fill="#FFFFFF"/>
<path d="M5945 4458 c-22 -5 -74 -13 -115 -17 -66 -7 -71 -9 -42 -16 29 -7 37
-29 18 -51 -8 -10 -110 -31 -128 -27 -13 3 4 -8 38 -25 33 -16 89 -48 125 -70
63 -40 194 -105 235 -116 18 -6 20 -3 16 24 -2 17 1 37 8 45 9 11 8 14 -7 13
-25 -2 -113 39 -201 94 l-73 46 60 7 c60 7 167 32 144 34 -15 1 -45 56 -36 65
4 3 4 6 2 5 -2 -1 -22 -5 -44 -11z" fill="#FFFFFF"/>
<path d="M5175 4307 c-56 -56 -122 -171 -105 -182 6 -3 10 -48 10 -98 0 -51 5
-146 11 -212 6 -66 11 -126 11 -132 1 -7 4 -11 6 -8 3 3 21 -19 41 -48 263
-390 951 -502 1510 -245 339 155 604 458 732 837 27 80 35 130 9 58 -15 -40
-60 -43 -60 -3 0 11 -18 -22 -39 -75 -275 -695 -1031 -1046 -1717 -798 -437
159 -613 643 -319 880 29 23 34 30 17 24 -29 -8 -57 22 -40 42 31 37 -20 6
-67 -40z m1892 -569 c0 -48 -30 -98 -58 -98 -10 0 -20 -8 -23 -17 -3 -10 -4
-6 -2 8 2 22 -1 25 -22 21 -19 -4 77 113 104 127 1 1 1 -18 1 -41z" fill="#FFFFFF"/>
<path d="M4743 4073 c20 -2 54 -2 75 0 20 2 3 4 -38 4 -41 0 -58 -2 -37 -4z" fill="#FFFFFF"/>
<path d="M1950 7952 c0 -5 10 -31 22 -58 73 -162 -1 -323 -252 -548 -395 -355
-390 -697 13 -915 72 -39 76 -39 39 4 -81 92 -121 220 -102 323 21 117 54 160
242 324 85 74 128 154 128 240 0 68 8 71 49 19 85 -107 106 -292 49 -415 -34
-70 -33 -66 -5 -66 35 0 111 53 137 95 30 48 41 35 47 -52 10 -128 -41 -270
-133 -372 -51 -56 -50 -60 5 -32 396 203 525 638 289 978 l-33 48 -7 -61 c-8
-79 -60 -184 -90 -184 -5 0 -6 42 -2 93 13 198 -69 383 -221 495 -85 62 -175
106 -175 84z" fill="#D81715"/>
<path d="M5764 6746 c-207 -47 -272 -154 -203 -338 48 -127 58 -172 70 -313
21 -251 -9 -685 -77 -1122 -66 -431 -30 -512 232 -521 309 -11 446 117 393
367 -50 235 -51 252 -56 541 -7 404 13 663 82 1035 55 300 -104 427 -441 351z" fill="#D81715"/>
<path d="M2592 6581 c-315 -78 -507 -330 -637 -841 -30 -118 -42 -109 -74 52
-108 539 -277 713 -675 695 -435 -20 -616 -256 -452 -590 194 -397 117 -1104
-204 -1858 -98 -228 -114 -289 -107 -387 39 -514 893 -468 992 54 19 94 19
198 0 584 -27 573 -30 830 -12 830 23 0 19 11 107 -336 116 -463 139 -515 238
-544 124 -38 201 46 285 305 229 710 235 721 223 484 -10 -214 -51 -634 -86
-884 -32 -237 -38 -381 -16 -460 128 -481 1052 -348 1050 152 l0 81 -92 184
c-279 557 -340 1367 -150 1979 123 398 -26 589 -390 500z" fill="#D81715"/>
<path d="M9195 6450 c-465 -93 -725 -774 -518 -1353 142 -398 614 -495 921
-188 251 250 233 721 -19 486 -182 -172 -401 -176 -465 -9 -24 63 -8 79 91 88
357 32 568 254 552 580 -14 300 -242 460 -562 396z m114 -356 c64 -82 7 -245
-107 -307 -107 -58 -143 -29 -125 99 26 180 160 300 232 208z" fill="#D81715"/>
<path d="M8096 6379 c-342 -39 -569 -331 -503 -645 36 -170 125 -265 364 -389
166 -86 210 -232 87 -290 -96 -45 -169 13 -160 127 16 192 -248 169 -336 -30
-131 -295 96 -555 472 -539 651 28 812 789 230 1092 -218 114 -272 192 -194
284 75 89 182 37 169 -83 -18 -163 225 -153 318 13 148 264 -84 502 -447 460z" fill="#D81715"/>
<path d="M7192 6276 c-196 -38 -255 -111 -227 -285 55 -340 13 -822 -77 -885
-139 -97 -178 113 -109 575 11 68 27 176 36 239 36 231 -14 309 -195 310 -305
0 -450 -160 -385 -425 30 -121 29 -87 9 -671 -9 -259 15 -375 98 -468 124
-141 381 -141 537 -1 52 47 59 41 37 -37 -140 -506 -593 -669 -1066 -384 -390
236 -774 67 -725 -318 87 -696 1296 -815 1888 -186 312 331 407 667 442 1555
13 336 26 469 66 680 51 268 -44 355 -329 301z" fill="#D81715"/>
<path d="M5235 6156 c-86 -21 -170 -77 -224 -150 -40 -53 -51 -57 -51 -18 0
114 -136 162 -328 117 -216 -51 -281 -164 -213 -367 69 -203 70 -515 5 -993
-45 -327 3 -405 250 -405 327 1 430 114 367 400 -104 473 -94 874 23 888 57 7
70 -37 39 -135 -71 -226 279 -199 392 30 167 338 17 701 -260 633z" fill="#D81715"/>
<path d="M3722 6039 c-313 -38 -549 -222 -569 -445 -26 -285 326 -331 431 -56
67 174 231 180 231 9 0 -109 -55 -157 -256 -226 -442 -150 -612 -404 -524
-779 83 -351 489 -457 730 -191 21 24 40 39 42 34 28 -85 79 -110 218 -110
276 2 378 117 308 350 l-28 90 0 490 c0 485 0 491 -23 556 -74 213 -274 313
-560 278z m76 -1038 c8 -191 -107 -343 -216 -287 -132 68 23 376 183 363 l30
-2 3 -74z" fill="#D81715"/>
</g></svg>